<svg width="87" height="90" viewBox="0 0 87 90" fill="none" xmlns="http://www.w3.org/2000/svg">
<path d="M47.3115 72.7258C47.3115 78.6726 54.5436 81.6035 58.6837 77.3345L82.2152 53.0707C84.7276 50.4801 86.1326 47.0131 86.1326 43.4044V16.3349C86.1326 10.3881 78.9005 7.45715 74.7604 11.7261L51.2289 35.9899C48.7165 38.5805 47.3115 42.0475 47.3115 45.6563V72.7258Z" fill="#0C7FDA"/>
<path d="M23.2527 73.6651C23.2527 79.6119 30.4848 82.5428 34.625 78.2739L57.5935 54.5905C60.4669 51.6277 62.0739 47.6624 62.0739 43.535V17.2742C62.0739 11.3274 54.8418 8.39648 50.7017 12.6655L27.1702 36.9293C24.6578 39.5199 23.2527 42.9869 23.2527 46.5956V73.6651Z" fill="#2196F3"/>
<path d="M0 72.7258C0 78.6726 7.23209 81.6035 11.3722 77.3345L34.9037 53.0707C37.4161 50.4801 38.8212 47.0131 38.8212 43.4044V16.3349C38.8212 10.3881 31.5891 7.45715 27.4489 11.7261L3.91746 35.9899C1.40506 38.5805 0 42.0475 0 45.6563V72.7258Z" fill="#6EBBF7"/>
</svg>
