<svg width="24" height="27" viewBox="0 0 24 27" fill="none" xmlns="http://www.w3.org/2000/svg">
<path fill-rule="evenodd" clip-rule="evenodd" d="M12 21.3846C7.93318 21.3846 4.63636 17.897 4.63636 13.5949C4.63636 9.29285 7.93318 5.80531 12 5.80531C16.0668 5.80531 19.3636 9.29285 19.3636 13.5949C19.3636 17.897 16.0668 21.3846 12 21.3846ZM3 13.5949C3 18.8531 7.02944 23.1156 12 23.1156C16.9706 23.1156 21 18.8531 21 13.5949C21 8.33682 16.9706 4.07428 12 4.07428C7.02944 4.07428 3 8.33682 3 13.5949Z" fill="white"/>
<path d="M11.418 17.6652C11.4299 17.6779 11.4421 17.6903 11.4548 17.7023C11.5219 17.7658 11.5965 17.8156 11.6754 17.8517C11.7749 17.8972 11.8847 17.9225 12.0001 17.9225L12.0025 17.9225C12.1091 17.9221 12.2108 17.9003 12.304 17.8608C12.404 17.8185 12.4977 17.7546 12.5786 17.669L15.8514 14.2069C16.1709 13.8689 16.1709 13.3209 15.8514 12.9829C15.5318 12.6449 15.0138 12.6449 14.6943 12.9829L12.8182 14.9675V10.1329C12.8182 9.65484 12.4519 9.26734 12.0001 9.26734C11.5482 9.26734 11.1819 9.65484 11.1819 10.1329V14.9674L9.3059 12.9829C8.98638 12.6449 8.46834 12.6449 8.14882 12.9829C7.8293 13.3209 7.8293 13.8689 8.14882 14.2069L11.418 17.6652Z" fill="white"/>
</svg>
