<svg width="16" height="18" viewBox="0 0 16 18" fill="none" xmlns="http://www.w3.org/2000/svg">
<path d="M12.086 5.97417C11.897 4.17689 11.0468 3.6004 9.23325 3.46283L9.19373 1.7522L7.79071 1.77908L7.82891 3.42412C7.46052 3.43117 7.08369 3.44567 6.70947 3.46136L6.66946 1.8007L5.26776 1.8272L5.30861 3.53647L3 3.59468L3.02644 5.21844C3.02644 5.21844 3.54256 5.17745 3.52567 5.1985C4.09383 5.18801 4.2848 5.54176 4.34338 5.84934L4.45331 12.6906C4.43146 12.8848 4.33133 13.1956 3.93429 13.2032C3.95261 13.2201 3.43376 13.221 3.43376 13.221L3.18482 15.0441L5.49275 14.9997L5.53397 16.5621L6.93507 16.5358L6.89511 15.0003C7.28066 15.0014 7.65224 14.9979 8.01546 14.9907L8.05489 16.5146L9.45766 16.4878L9.41756 14.93C11.7736 14.7385 12.8203 14.0634 12.9861 11.6613C13.1205 9.72585 12.2682 8.8793 10.9238 8.55597C11.7296 8.0909 12.2253 7.29081 12.0852 5.9754L12.086 5.97417ZM10.8032 11.4128C10.8333 13.3005 7.84862 13.1424 6.89746 13.1611L6.84398 9.81454C7.79485 9.79675 10.7705 9.44458 10.8032 11.4128ZM10.0761 6.70337C10.1034 8.42136 7.6128 8.26773 6.82047 8.28263L6.77064 5.24692C7.56328 5.23221 10.0475 4.9121 10.0761 6.70337Z" fill="white"/>
</svg>
