<svg width="24" height="26" viewBox="0 0 24 26" fill="none" xmlns="http://www.w3.org/2000/svg">
<path fill-rule="evenodd" clip-rule="evenodd" d="M3.81818 6.28099C3.20097 6.28099 2.75 6.78292 2.75 7.33885V18.4463C2.75 19.0022 3.20097 19.5041 3.81818 19.5041H20.1818C20.799 19.5041 21.25 19.0022 21.25 18.4463V7.33885C21.25 6.78292 20.799 6.28099 20.1818 6.28099H3.81818ZM1.25 7.33885C1.25 5.84995 2.42709 4.69421 3.81818 4.69421H20.1818C21.5729 4.69421 22.75 5.84995 22.75 7.33885V18.4463C22.75 19.9352 21.5729 21.0909 20.1818 21.0909H3.81818C2.42709 21.0909 1.25 19.9352 1.25 18.4463V7.33885Z" fill="#ADD3F1"/>
<path fill-rule="evenodd" clip-rule="evenodd" d="M1.25 10.7769C1.25 10.3387 1.58579 9.98352 2 9.98352H22C22.4142 9.98352 22.75 10.3387 22.75 10.7769C22.75 11.2151 22.4142 11.5703 22 11.5703H2C1.58579 11.5703 1.25 11.2151 1.25 10.7769Z" fill="#ADD3F1"/>
</svg>
