<svg width="48" height="52" viewBox="0 0 48 52" fill="none" xmlns="http://www.w3.org/2000/svg">
<rect y="0.553711" width="48" height="50.7769" rx="12" fill="#FF7991" fill-opacity="0.08"/>
<circle cx="24" cy="26" r="20" fill="white"/>
<path d="M33.649 30.6738C33.5697 30.5512 33.4407 30.4694 33.296 30.4498C31.3919 30.2011 30.0499 28.4559 30.2986 26.5518C30.4743 25.2068 31.4161 24.0868 32.711 23.6829C32.974 23.5986 33.1189 23.3171 33.0346 23.0541C33.0215 23.0132 33.0032 22.9741 32.98 22.9378C32.1063 21.3609 30.5526 20.2763 28.7711 19.9999C27.8733 20.0427 26.9886 20.2322 26.1521 20.5609C25.5513 20.8027 24.9169 20.9507 24.2711 20.9999C23.6253 20.9507 22.9909 20.8027 22.3901 20.5609C21.5536 20.2322 20.6689 20.0427 19.7712 19.9999C17.9042 19.9999 14.2712 22.6468 14.2712 27.4998C14.2712 32.1117 17.6352 37.9997 20.2712 37.9997C21.277 38.0087 22.2707 37.7798 23.1712 37.3317C23.5103 37.1447 23.8852 37.0315 24.2712 36.9997C24.6571 37.0315 25.032 37.1447 25.3712 37.3317C26.2717 37.7798 27.2654 38.0087 28.2712 37.9997C30.3612 37.9997 32.7201 34.4117 33.7081 31.0868C33.7494 30.9471 33.7279 30.7963 33.649 30.6738Z" fill="#37474F"/>
<path d="M23.771 19.9999C26.8071 19.9966 29.2676 17.5362 29.2709 14.5C29.2709 14.2239 29.0471 14 28.7709 14C25.7348 14.0033 23.2743 16.4638 23.271 19.4999C23.2709 19.7761 23.4948 19.9999 23.771 19.9999Z" fill="#37474F"/>
</svg>
